<svg width="226" height="206" viewBox="0 0 226 206" fill="none" xmlns="http://www.w3.org/2000/svg">
<mask id="mask0_532_6573" style="mask-type:luminance" maskUnits="userSpaceOnUse" x="33" y="31" width="75" height="70">
<path d="M33.4907 34.5834C31.6926 39.196 35.341 43.7043 38.7027 47.4699C46.9375 57.4769 81.0497 94.0386 86.4962 100.228C86.4962 100.228 90.6787 95.6934 95.5258 89.8039C98.7965 85.9474 101.813 81.8822 104.556 77.634C106.167 74.7497 107.228 71.5904 107.683 68.3177C107.879 67.1954 107.932 66.0525 107.839 64.9169C107.214 59.4444 105.494 57.9199 102.445 55.1575C98.5357 51.5743 91.9036 48.9553 78.2092 44.2516C64.5148 39.5478 48.9833 34.6095 42.0774 32.3814C40.9242 31.9808 39.7148 31.7654 38.4942 31.7429C37.4709 31.6553 36.445 31.8798 35.5518 32.3868C34.6586 32.8939 33.94 33.6598 33.4907 34.5834Z" fill="white"/>
</mask>
<g mask="url(#mask0_532_6573)">
<path d="M63.6332 -6.77541L-1.26172 71.3013L77.5875 136.838L142.482 58.7616L63.6332 -6.77541Z" fill="url(#paint0_linear_532_6573)"/>
</g>
<mask id="mask1_532_6573" style="mask-type:luminance" maskUnits="userSpaceOnUse" x="0" y="64" width="109" height="142">
<path d="M107.67 68.3569C107.215 71.6295 106.154 74.7889 104.542 77.6732C101.8 81.9213 98.7834 85.9866 95.5127 89.8431C90.6656 95.6935 86.4831 100.267 86.4831 100.267C70.1436 118.509 29.9856 165.312 10.8187 185.925C5.7501 190.942 -3.57921 202.59 1.43729 205.066C6.45378 207.542 15.6268 201.379 22.3502 198.291C40.9177 188.466 82.9129 165.716 99.2263 154.354C102.197 151.748 108.047 145.415 108.047 137.741V71.1452C108.07 69.0784 107.975 67.0119 107.761 64.9561C107.854 66.0917 107.801 67.2345 107.604 68.3569" fill="white"/>
</mask>
<g mask="url(#mask1_532_6573)">
<path d="M59.1421 9.5021L-74.3232 127.416L45.3767 262.903L178.842 144.989L59.1421 9.5021Z" fill="url(#paint1_linear_532_6573)"/>
</g>
<mask id="mask2_532_6573" style="mask-type:luminance" maskUnits="userSpaceOnUse" x="118" y="105" width="75" height="69">
<path d="M130.434 115.798C127.16 119.648 124.144 123.709 121.404 127.955C119.792 130.84 118.732 133.999 118.277 137.272C118.08 138.394 118.028 139.537 118.121 140.672C118.746 146.158 120.466 147.669 123.515 150.432C127.424 154.015 134.056 156.647 147.75 161.338C161.445 166.029 176.976 170.98 183.882 173.221C190.788 175.462 192.469 171.045 192.469 171.045C194.267 166.445 190.619 161.924 187.257 158.159C179.022 148.152 144.91 111.59 139.463 105.401C139.463 105.401 135.281 109.935 130.434 115.825" fill="white"/>
</mask>
<g mask="url(#mask2_532_6573)">
<path d="M147.486 68.2369L83.8682 148.33L164.747 212.571L228.364 132.478L147.486 68.2369Z" fill="url(#paint2_linear_532_6573)"/>
</g>
<mask id="mask3_532_6573" style="mask-type:luminance" maskUnits="userSpaceOnUse" x="117" y="0" width="110" height="141">
<path d="M203.585 7.39C185.031 17.2015 143.036 39.8865 126.709 51.3136C123.739 53.9196 117.888 60.2521 117.888 67.9267V134.483C117.865 136.55 117.961 138.616 118.175 140.672C118.082 139.537 118.135 138.394 118.331 137.272C118.786 133.999 119.847 130.84 121.458 127.955C124.198 123.709 127.214 119.648 130.488 115.798C135.335 109.935 139.518 105.374 139.518 105.374C155.857 87.1327 196.015 40.3295 215.182 19.7162C220.251 14.6997 229.58 3.05106 224.564 0.57539C223.713 0.173742 222.78 -0.0226353 221.84 0.00207395C216.628 0.00207395 209.293 4.77101 203.598 7.36395" fill="white"/>
</mask>
<g mask="url(#mask3_532_6573)">
<path d="M181.475 -55.2715L48.1973 60.5439L165.893 195.985L299.17 80.1696L181.475 -55.2715Z" fill="url(#paint3_linear_532_6573)"/>
</g>
<g style="mix-blend-mode:luminosity" opacity="0.26">
<mask id="mask4_532_6573" style="mask-type:luminance" maskUnits="userSpaceOnUse" x="117" y="1" width="109" height="140">
<path d="M225.657 1.99512H117.835V140.672H225.657V1.99512Z" fill="white"/>
</mask>
<g mask="url(#mask4_532_6573)">
<path d="M217.017 5.21291C213.108 8.36614 192.951 24.3668 185.394 30.3605C177.837 36.3543 151.36 58.0099 143.698 64.3554C136.037 70.7009 131.541 74.4535 125.939 81.4245C120.792 87.8091 118.264 101.438 117.886 103.64V134.482C117.863 136.549 117.959 138.615 118.173 140.671C118.08 139.536 118.133 138.393 118.329 137.27C118.784 133.998 119.845 130.838 121.456 127.954C124.199 123.706 127.215 119.641 130.486 115.784C135.333 109.934 139.516 105.36 139.516 105.36C155.855 87.1185 196.013 40.3153 215.18 19.7021C218.724 16.1971 224.301 9.47368 225.695 4.87414C226.008 0.0140091 221.004 2.00757 217.069 5.17382" fill="#C1272D"/>
</g>
</g>
<g style="mix-blend-mode:luminosity" opacity="0.26">
<mask id="mask5_532_6573" style="mask-type:luminance" maskUnits="userSpaceOnUse" x="118" y="122" width="75" height="52">
<path d="M192.897 122.144H118.066V173.846H192.897V122.144Z" fill="white"/>
</mask>
<g mask="url(#mask5_532_6573)">
<path d="M183.88 173.221C190.798 175.449 192.466 171.045 192.466 171.045C192.694 170.469 192.839 169.863 192.896 169.246C190.29 173.924 184.609 170.901 172.596 161.429C160.582 151.956 143.083 137.805 136.112 132.007C132.343 128.937 128.774 125.63 125.428 122.104C123.994 124.033 122.613 126.013 121.427 127.916C119.816 130.8 118.755 133.959 118.3 137.232C118.104 138.354 118.051 139.497 118.144 140.633C118.769 146.119 120.489 147.643 123.538 150.392C127.447 153.975 134.08 156.608 147.774 161.298C161.468 165.989 177 170.94 183.906 173.182" fill="#C1272D"/>
</g>
</g>
<g style="mix-blend-mode:luminosity" opacity="0.26">
<mask id="mask6_532_6573" style="mask-type:luminance" maskUnits="userSpaceOnUse" x="0" y="64" width="109" height="140">
<path d="M108.113 64.9556H0.291016V203.632H108.113V64.9556Z" fill="white"/>
</mask>
<g mask="url(#mask6_532_6573)">
<path d="M8.93017 200.427C12.8391 197.274 32.9962 181.26 40.5536 175.266C48.1109 169.273 74.5875 147.617 82.2491 141.271C89.9106 134.926 94.3929 131.186 100.009 124.215C105.156 117.818 107.683 104.201 108.061 102.065V71.1447C108.084 69.0779 107.989 67.0114 107.775 64.9556C107.867 66.0912 107.815 67.234 107.618 68.3564C107.163 71.6291 106.103 74.7884 104.491 77.6727C101.748 81.9209 98.732 85.9861 95.4614 89.8426C90.6143 95.693 86.4317 100.266 86.4317 100.266C70.0923 118.508 29.9343 165.312 10.7673 185.925C7.22322 189.43 1.64644 196.153 0.252244 200.753C-0.0604719 205.613 4.94298 203.619 8.878 200.466" fill="#C1272D"/>
</g>
</g>
<g style="mix-blend-mode:luminosity" opacity="0.26">
<mask id="mask7_532_6573" style="mask-type:luminance" maskUnits="userSpaceOnUse" x="33" y="31" width="75" height="53">
<path d="M107.876 31.7812H33.0459V83.4837H107.876V31.7812Z" fill="white"/>
</mask>
<g mask="url(#mask7_532_6573)">
<path d="M42.0626 32.4195C35.1438 30.1914 33.4759 34.5825 33.4759 34.5825C33.2478 35.1583 33.103 35.7638 33.0459 36.3806C35.6519 31.7029 41.3329 34.7258 53.3464 44.1985C65.3599 53.6712 82.859 67.8216 89.83 73.6199C93.599 76.6896 97.1678 79.9973 100.514 83.5226C101.948 81.5941 103.329 79.6136 104.515 77.7113C106.126 74.8269 107.187 71.6676 107.642 68.3949C107.838 67.2726 107.891 66.1298 107.798 64.9942C107.173 59.5216 105.453 57.9971 102.404 55.2348C98.4949 51.6516 91.8626 49.0326 78.1683 44.3288C64.4739 39.625 48.9423 34.6867 42.0365 32.4586" fill="#C1272D"/>
</g>
</g>
<defs>
<linearGradient id="paint0_linear_532_6573" x1="97.4203" y1="84.3811" x2="35.6873" y2="33.0706" gradientUnits="userSpaceOnUse">
<stop stop-color="#5CD7FE"/>
<stop offset="0.06" stop-color="#5DCEFE"/>
<stop offset="0.16" stop-color="#60B5FE"/>
<stop offset="0.29" stop-color="#668CFF"/>
<stop offset="0.3" stop-color="#6689FF"/>
<stop offset="0.6" stop-color="#9752FF"/>
<stop offset="0.99" stop-color="#D80FFF"/>
<stop offset="1" stop-color="#D80FFF"/>
</linearGradient>
<linearGradient id="paint1_linear_532_6573" x1="-12.2255" y1="186.067" x2="104.591" y2="82.8622" gradientUnits="userSpaceOnUse">
<stop stop-color="#5CD7FE"/>
<stop offset="0.06" stop-color="#5DCEFE"/>
<stop offset="0.16" stop-color="#60B5FE"/>
<stop offset="0.29" stop-color="#668CFF"/>
<stop offset="0.3" stop-color="#6689FF"/>
<stop offset="0.6" stop-color="#9752FF"/>
<stop offset="0.99" stop-color="#D80FFF"/>
<stop offset="1" stop-color="#D80FFF"/>
</linearGradient>
<linearGradient id="paint2_linear_532_6573" x1="129.06" y1="116.133" x2="192.491" y2="166.516" gradientUnits="userSpaceOnUse">
<stop stop-color="#EC00C3"/>
<stop offset="0.08" stop-color="#EF05BA"/>
<stop offset="0.22" stop-color="#F913A1"/>
<stop offset="0.3" stop-color="#FF1D8F"/>
<stop offset="0.6" stop-color="#FF8170"/>
<stop offset="0.99" stop-color="#FFD735"/>
<stop offset="1" stop-color="#FFD735"/>
</linearGradient>
<linearGradient id="paint3_linear_532_6573" x1="236.074" y1="13.7805" x2="133.06" y2="103.298" gradientUnits="userSpaceOnUse">
<stop stop-color="#EC00C3"/>
<stop offset="0.08" stop-color="#EF05BA"/>
<stop offset="0.22" stop-color="#F913A1"/>
<stop offset="0.3" stop-color="#FF1D8F"/>
<stop offset="0.6" stop-color="#FF8170"/>
<stop offset="0.99" stop-color="#FFD735"/>
<stop offset="1" stop-color="#FFD735"/>
</linearGradient>
</defs>
</svg>
